<svg xmlns="http://www.w3.org/2000/svg" viewBox="0 0 64 64" fill="none">
  <!-- stem -->
  <path d="M32 54 Q30 44 32 36" stroke="#5a7a3a" stroke-width="1.8" stroke-linecap="round"/>
  <!-- leaf -->
  <path d="M32 46 Q25 42 26 36 Q31 40 32 46Z" fill="#6a8a4a" opacity="0.85"/>
  <!-- outer petals -->
  <ellipse cx="32" cy="26" rx="5" ry="9" fill="#c85070" opacity="0.75" transform="rotate(0 32 32)"/>
  <ellipse cx="32" cy="26" rx="5" ry="9" fill="#d06080" opacity="0.75" transform="rotate(60 32 32)"/>
  <ellipse cx="32" cy="26" rx="5" ry="9" fill="#c05068" opacity="0.75" transform="rotate(120 32 32)"/>
  <ellipse cx="32" cy="26" rx="5" ry="9" fill="#d06878" opacity="0.75" transform="rotate(180 32 32)"/>
  <ellipse cx="32" cy="26" rx="5" ry="9" fill="#c85878" opacity="0.75" transform="rotate(240 32 32)"/>
  <ellipse cx="32" cy="26" rx="5" ry="9" fill="#d06070" opacity="0.75" transform="rotate(300 32 32)"/>
  <!-- inner petals -->
  <ellipse cx="32" cy="28" rx="3.5" ry="6" fill="#e07888" opacity="0.9" transform="rotate(30 32 32)"/>
  <ellipse cx="32" cy="28" rx="3.5" ry="6" fill="#d87080" opacity="0.9" transform="rotate(90 32 32)"/>
  <ellipse cx="32" cy="28" rx="3.5" ry="6" fill="#e07888" opacity="0.9" transform="rotate(150 32 32)"/>
  <ellipse cx="32" cy="28" rx="3.5" ry="6" fill="#d87888" opacity="0.9" transform="rotate(210 32 32)"/>
  <ellipse cx="32" cy="28" rx="3.5" ry="6" fill="#e08090" opacity="0.9" transform="rotate(270 32 32)"/>
  <ellipse cx="32" cy="28" rx="3.5" ry="6" fill="#d87080" opacity="0.9" transform="rotate(330 32 32)"/>
  <!-- center -->
  <circle cx="32" cy="32" r="4.5" fill="#f0c040" opacity="0.95"/>
  <circle cx="32" cy="32" r="2.5" fill="#e0a828"/>
</svg>
